<svg width="70" height="70" viewBox="0 0 70 70" fill="none" xmlns="http://www.w3.org/2000/svg">
<g id="Socmed/Instagram">
<g id="Ellipse 178" filter="url(#filter0_d_226_1192)">
<circle cx="35.0001" cy="22" r="17" fill="#F53838"/>
</g>
<path id="Vector" d="M40.3126 22C40.3126 23.409 39.7529 24.7602 38.7566 25.7565C37.7603 26.7528 36.4091 27.3125 35.0001 27.3125C33.5912 27.3125 32.2399 26.7528 31.2436 25.7565C30.2473 24.7602 29.6876 23.409 29.6876 22C29.6876 21.6972 29.7195 21.4015 29.7744 21.1146H27.9168V28.1926C27.9168 28.6849 28.3152 29.0833 28.8075 29.0833H41.1945C41.4304 29.0829 41.6565 28.9888 41.8232 28.8218C41.9899 28.6548 42.0835 28.4285 42.0835 28.1926V21.1146H40.2259C40.2807 21.4015 40.3126 21.6972 40.3126 22ZM35.0001 25.5417C35.4653 25.5415 35.926 25.4498 36.3557 25.2717C36.7855 25.0935 37.176 24.8325 37.5048 24.5035C37.8337 24.1744 38.0945 23.7838 38.2725 23.354C38.4504 22.9241 38.5419 22.4634 38.5418 21.9982C38.5417 21.533 38.4499 21.0724 38.2718 20.6426C38.0937 20.2129 37.8326 19.8224 37.5036 19.4935C37.1745 19.1647 36.7839 18.9038 36.3541 18.7259C35.9242 18.548 35.4636 18.4564 34.9984 18.4566C34.0588 18.4568 33.1578 18.8303 32.4936 19.4948C31.8295 20.1593 31.4564 21.0605 31.4567 22C31.4569 22.9395 31.8304 23.8405 32.4949 24.5047C33.1594 25.1689 34.0606 25.5419 35.0001 25.5417ZM39.2501 18.2812H41.3734C41.5144 18.2812 41.6497 18.2253 41.7496 18.1258C41.8495 18.0262 41.9059 17.8911 41.9064 17.75V15.6268C41.9064 15.4854 41.8502 15.3498 41.7503 15.2499C41.6503 15.1499 41.5147 15.0937 41.3734 15.0937H39.2501C39.1088 15.0937 38.9732 15.1499 38.8732 15.2499C38.7733 15.3498 38.7171 15.4854 38.7171 15.6268V17.75C38.7189 18.0422 38.9579 18.2812 39.2501 18.2812ZM35.0001 5C30.4914 5 26.1674 6.79107 22.9793 9.97918C19.7912 13.1673 18.0001 17.4913 18.0001 22C18.0001 26.5087 19.7912 30.8327 22.9793 34.0208C26.1674 37.2089 30.4914 39 35.0001 39C37.2326 39 39.4432 38.5603 41.5057 37.706C43.5683 36.8516 45.4423 35.5994 47.0209 34.0208C48.5995 32.4422 49.8517 30.5682 50.7061 28.5056C51.5604 26.4431 52.0001 24.2325 52.0001 22C52.0001 19.7675 51.5604 17.5569 50.7061 15.4944C49.8517 13.4318 48.5995 11.5578 47.0209 9.97918C45.4423 8.40059 43.5683 7.14838 41.5057 6.29405C39.4432 5.43972 37.2326 5 35.0001 5ZM43.8543 28.8868C43.8543 29.9688 42.9689 30.8542 41.8869 30.8542H28.1134C27.0314 30.8542 26.146 29.9688 26.146 28.8868V15.1132C26.146 14.0312 27.0314 13.1458 28.1134 13.1458H41.8869C42.9689 13.1458 43.8543 14.0312 43.8543 15.1132V28.8868Z" fill="white"/>
</g>
<defs>
<filter id="filter0_d_226_1192" x="0.00012207" y="0" width="70" height="70" filterUnits="userSpaceOnUse" color-interpolation-filters="sRGB">
<feFlood flood-opacity="0" result="BackgroundImageFix"/>
<feColorMatrix in="SourceAlpha" type="matrix" values="0 0 0 0 0 0 0 0 0 0 0 0 0 0 0 0 0 0 127 0" result="hardAlpha"/>
<feOffset dy="13"/>
<feGaussianBlur stdDeviation="9"/>
<feColorMatrix type="matrix" values="0 0 0 0 0.0658854 0 0 0 0 0.0730469 0 0 0 0 0.1375 0 0 0 0.08 0"/>
<feBlend mode="normal" in2="BackgroundImageFix" result="effect1_dropShadow_226_1192"/>
<feBlend mode="normal" in="SourceGraphic" in2="effect1_dropShadow_226_1192" result="shape"/>
</filter>
</defs>
</svg>
